<svg width="21" height="20" viewBox="0 0 21 20" fill="none" xmlns="http://www.w3.org/2000/svg">
	<path fill-rule="evenodd" clip-rule="evenodd" d="M1.03803 0.292416C0.647259 0.15503 0.219108 0.360436 0.0817223 0.751202C-0.055663 1.14197 0.149743 1.57012 0.540509 1.7075L0.801718 1.79934C1.46933 2.03406 1.90808 2.18961 2.23092 2.34802C2.53415 2.4968 2.66782 2.61723 2.75588 2.74609C2.84614 2.87818 2.91584 3.0596 2.95517 3.42295C2.99633 3.80316 2.99735 4.29837 2.99735 5.03832V7.75996C2.99735 9.21249 3.01097 10.2598 3.14803 11.0601C3.29435 11.9144 3.58648 12.526 4.13272 13.1022C4.72658 13.7285 5.47938 14.0012 6.37562 14.1283C7.23385 14.25 8.3237 14.25 9.66942 14.25L15.0752 14.25C15.8168 14.25 16.4409 14.25 16.9458 14.1882C17.4816 14.1226 17.9702 13.9793 18.3967 13.6318C18.8232 13.2842 19.0622 12.8346 19.2345 12.3231C19.397 11.841 19.5229 11.2299 19.6726 10.5034L20.1816 8.03411L20.1825 8.02952L20.193 7.97723C20.3576 7.15234 20.4962 6.45845 20.5306 5.90034C20.5668 5.31414 20.5001 4.73613 20.1182 4.23974C19.8833 3.93432 19.5529 3.76141 19.2524 3.65583C18.9459 3.54814 18.5994 3.48584 18.2496 3.44674C17.5626 3.36993 16.7279 3.36995 15.9093 3.36996L4.45715 3.36996C4.45386 3.33321 4.45031 3.29706 4.44646 3.26153C4.39273 2.76515 4.27631 2.31243 3.99433 1.89979C3.71015 1.48393 3.3323 1.21759 2.89167 1.00139C2.47958 0.799188 1.95595 0.615112 1.33942 0.39838L1.03803 0.292416ZM4.49734 4.86996H15.8781C16.7345 4.86996 17.4882 4.87096 18.083 4.93745C18.3785 4.97049 18.5997 5.01639 18.7552 5.07101C18.8822 5.11565 18.9252 5.1521 18.9314 5.15737C18.9313 5.15726 18.9317 5.15759 18.9314 5.15737C18.9928 5.23878 19.0595 5.38648 19.0335 5.80793C19.0061 6.2515 18.8896 6.84376 18.712 7.73369L18.7115 7.73591L18.2127 10.156C18.0514 10.9389 17.9428 11.4592 17.8131 11.8441C17.69 12.2095 17.5743 12.3669 17.4491 12.469C17.3239 12.571 17.1463 12.6525 16.7636 12.6993C16.3605 12.7487 15.8289 12.75 15.0296 12.75H9.72674C8.30996 12.75 7.32689 12.7482 6.58623 12.6432C5.87141 12.5418 5.49379 12.3576 5.22125 12.0701C4.90108 11.7324 4.7284 11.4018 4.6265 10.8068C4.51534 10.1578 4.49735 9.249 4.49735 7.75996L4.49734 4.86996Z" fill="white"/>
	<path fill-rule="evenodd" clip-rule="evenodd" d="M6.28927 19.75C5.04663 19.75 4.03927 18.7426 4.03927 17.5C4.03927 16.2573 5.04663 15.25 6.28927 15.25C7.53191 15.25 8.53927 16.2573 8.53927 17.5C8.53927 18.7426 7.53191 19.75 6.28927 19.75ZM5.53927 17.5C5.53927 17.9142 5.87505 18.25 6.28927 18.25C6.70348 18.25 7.03927 17.9142 7.03927 17.5C7.03927 17.0857 6.70348 16.75 6.28927 16.75C5.87505 16.75 5.53927 17.0857 5.53927 17.5Z" fill="white"/>
	<path fill-rule="evenodd" clip-rule="evenodd" d="M15.2893 19.75C14.0466 19.75 13.0393 18.7427 13.0393 17.5C13.0393 16.2574 14.0466 15.25 15.2893 15.25C16.5319 15.25 17.5393 16.2574 17.5393 17.5C17.5393 18.7427 16.5319 19.75 15.2893 19.75ZM14.5393 17.5C14.5393 17.9142 14.8751 18.25 15.2893 18.25C15.7035 18.25 16.0393 17.9142 16.0393 17.5C16.0393 17.0858 15.7035 16.75 15.2893 16.75C14.8751 16.75 14.5393 17.0858 14.5393 17.5Z" fill="white"/>
</svg>
