<svg width="44" height="44" viewBox="0 0 37 37" fill="none" xmlns="http://www.w3.org/2000/svg">
    <path fill-rule="evenodd" clip-rule="evenodd"
          d="M9.04011 1.95877e-05L27.535 0.0269787C32.5055 0.0342241 36.5291 4.06953 36.5219 9.04009L36.5162 12.8951H33.5162L33.5219 9.03571C33.5267 5.72201 30.8443 3.03181 27.5306 3.02698L9.03574 3.00002C5.72203 2.99519 3.03182 5.67756 3.02698 8.99127L3.00002 27.4646C2.99518 30.7783 5.67755 33.4685 8.99126 33.4733L27.4861 33.5003C30.7998 33.5051 33.4901 30.8227 33.4949 27.509L33.5007 23.5608H36.5007L36.4949 27.5134C36.4876 32.484 32.4523 36.5075 27.4818 36.5003L8.98688 36.4733C4.01632 36.4661 -0.00723583 32.4308 1.97807e-05 27.4602L0.0269856 8.9869C0.0342412 4.01634 4.06955 -0.00722577 9.04011 1.95877e-05ZM8.35485 14.6667L15.9032 7.00001L17.1613 8.21054L10.0323 14.6667H25.5484L18.8387 8.21054L19.6774 7.00001L28.2742 14.6667H31V17.0877H5.00001V14.6667H8.35485ZM29.3226 17.8947H5.83872L10.0323 30H25.9678L29.3226 17.8947ZM12.5484 28.386H13.3871V24.3509H12.5484V28.386ZM14.2258 28.386H15.0645V24.3509H14.2258V28.386ZM15.9032 24.3509H16.7419V28.386H15.9032V24.3509ZM17.5807 24.3509H18.4194V28.386H17.5807V24.3509ZM19.2581 28.386V24.3509H20.0968V28.386H19.2581ZM20.9355 24.3509H21.7742V28.386H20.9355V24.3509ZM22.6129 24.3509H23.4516V28.386H22.6129V24.3509ZM22.6129 19.5088H23.4516V23.5439H22.6129V19.5088ZM20.9355 19.5088H21.7742V23.5439H20.9355V19.5088ZM19.2581 23.5439V19.5088H20.0968V23.5439H19.2581ZM17.5807 19.5088H18.4194V23.5439H17.5807V19.5088ZM15.9032 19.5088H16.7419V23.5439H15.9032V19.5088ZM14.2258 19.5088H15.0645V23.5439H14.2258V19.5088ZM12.5484 19.5088H13.3871V23.5439H12.5484V19.5088Z"
          fill="#274772"/>
</svg>
