<svg width="112" height="37" viewBox="0 0 112 37" fill="none" xmlns="http://www.w3.org/2000/svg">
	<g clip-path="url(#clip0_4_950)">
		<path d="M50.3622 25.9017V19.637H41.1308V25.9017C41.1308 26.0545 41.0117 26.1786 40.8649 26.1786H37.4749C37.3281 26.1786 37.209 26.0545 37.209 25.9017V10.2512C37.209 10.0984 37.3281 9.97437 37.4749 9.97437H40.8649C41.0117 9.97437 41.1308 10.0984 41.1308 10.2512V16.1877H50.3622V10.2512C50.3622 10.0984 50.4814 9.97437 50.6281 9.97437H54.0181C54.1649 9.97437 54.284 10.0984 54.284 10.2512V25.9017C54.284 26.0545 54.1649 26.1786 54.0181 26.1786H50.6281C50.4814 26.1786 50.3622 26.0545 50.3622 25.9017Z" fill="#FF6C62"/>
		<path d="M58.3711 25.9017V10.2512C58.3711 10.0984 58.4902 9.97437 58.637 9.97437H72.524C72.6708 9.97437 72.7899 10.0984 72.7899 10.2512V12.6778C72.7899 12.8306 72.6708 12.9547 72.524 12.9547H62.3351V16.5689H71.254C71.4008 16.5689 71.52 16.693 71.52 16.8458V19.3102C71.52 19.463 71.4008 19.5871 71.254 19.5871H62.3351V23.2013H72.524C72.6708 23.2013 72.7899 23.3253 72.7899 23.4781V25.9048C72.7899 26.0576 72.6708 26.1816 72.524 26.1816H58.637C58.4902 26.1816 58.3711 26.0576 58.3711 25.9048V25.9017Z" fill="#FF6C62"/>
		<path d="M97.583 25.9017V10.2512C97.583 10.0984 97.7022 9.97437 97.8489 9.97437H111.736C111.883 9.97437 112.002 10.0984 112.002 10.2512V12.6778C112.002 12.8306 111.883 12.9547 111.736 12.9547H101.547V16.5689H110.466C110.613 16.5689 110.732 16.693 110.732 16.8458V19.3102C110.732 19.463 110.613 19.5871 110.466 19.5871H101.547V23.2013H111.736C111.883 23.2013 112.002 23.3253 112.002 23.4781V25.9048C112.002 26.0576 111.883 26.1816 111.736 26.1816H97.8489C97.7022 26.1816 97.583 26.0576 97.583 25.9048V25.9017Z" fill="#FF6C62"/>
		<path d="M80.3917 9.97437H77.0481C76.9013 9.97437 76.7822 10.0983 76.7822 10.2512V25.9002C76.7822 26.0531 76.9013 26.1771 77.0481 26.1771H80.3917C80.5385 26.1771 80.6576 26.0531 80.6576 25.9002V10.2512C80.6576 10.0983 80.5385 9.97437 80.3917 9.97437Z" fill="#FF6C62"/>
		<path d="M90.6858 26.1784C90.5841 26.1784 90.4955 26.1089 90.4664 26.0075L89.134 21.2405C88.8404 20.2102 87.9163 19.4916 86.8875 19.4916H79.2952C79.1485 19.4916 79.0293 19.3676 79.0293 19.2148V16.5098C79.0293 16.357 79.1485 16.2329 79.2952 16.2329H87.3438C89.7486 16.2329 91.9064 17.9092 92.5894 20.3101L94.15 25.8728C94.1921 26.0256 94.0831 26.1769 93.9306 26.1769H90.6858V26.1784Z" fill="#FF6C62"/>
		<path d="M87.6074 17.2815L89.4804 10.1499C89.508 10.047 89.5981 9.97437 89.7013 9.97437H93.1306C93.2817 9.97437 93.3907 10.1241 93.3514 10.2754L91.1704 18.5477L87.6103 17.28L87.6074 17.2815Z" fill="#FF6C62"/>
		<path d="M26.1174 13.449V26.0118C26.1174 26.1646 25.9982 26.2886 25.8515 26.2886H22.4614C22.3147 26.2886 22.1955 26.1646 22.1955 26.0118V13.4475H13.7939C13.6471 13.4475 13.5279 13.3219 13.5279 13.1706V10.2508C13.5279 10.098 13.6471 9.97397 13.7939 9.97397H34.5219L35.6176 4.62601C36.1726 1.91497 33.8608 -0.493505 31.2569 0.0859203L4.0045 6.13887C-0.327114 7.10105 -1.46196 12.9861 2.17798 15.6139L13.7052 23.9361L20.709 34.6865C23.2098 38.5247 28.9102 37.3658 29.8387 32.8302L33.8099 13.4505H26.1174V13.449Z" fill="#FF6C62"/>
	</g>
	<defs>
		<clipPath id="clip0_4_950">
			<rect width="112" height="37" fill="white"/>
		</clipPath>
	</defs>
</svg>
