<svg width="18" height="18" viewBox="0 0 18 18" fill="none" xmlns="http://www.w3.org/2000/svg">
	<g clip-path="url(#clip0_5_880)">
		<path d="M6.27 5.5C6.3 5.945 6.375 6.38 6.495 6.795L5.895 7.395C5.69 6.795 5.56 6.16 5.515 5.5H6.27ZM11.2 11.51C11.625 11.63 12.06 11.705 12.5 11.735V12.48C11.84 12.435 11.205 12.305 10.6 12.105L11.2 11.51ZM6.75 4.5H5C4.725 4.5 4.5 4.725 4.5 5C4.5 9.695 8.305 13.5 13 13.5C13.275 13.5 13.5 13.275 13.5 13V11.255C13.5 10.98 13.275 10.755 13 10.755C12.38 10.755 11.775 10.655 11.215 10.47C11.165 10.45 11.11 10.445 11.06 10.445C10.93 10.445 10.805 10.495 10.705 10.59L9.605 11.69C8.19 10.965 7.03 9.81 6.31 8.395L7.41 7.295C7.55 7.155 7.59 6.96 7.535 6.785C7.35 6.225 7.25 5.625 7.25 5C7.25 4.725 7.025 4.5 6.75 4.5Z" fill="#1E2228"/>
	</g>
	<defs>
		<clipPath id="clip0_5_880">
			<rect width="18" height="18" fill="white"/>
		</clipPath>
	</defs>
</svg>
