<svg width="41" height="40" viewBox="0 0 41 40" fill="none" xmlns="http://www.w3.org/2000/svg">
	<path d="M29.5001 14.4412H13" stroke="#fff" stroke-width="1.5" stroke-linecap="round"/>
	<path d="M27.8824 16.8677L27.436 23.5639C27.2642 26.1407 27.1783 27.4291 26.3387 28.2146C25.4992 29 24.2079 29 21.6253 29H20.8747C18.2922 29 17.0009 29 16.1613 28.2146C15.3218 27.4291 15.2359 26.1407 15.0641 23.5639L14.6177 16.8677" stroke="#fff" stroke-width="1.5" stroke-linecap="round"/>
	<path d="M18.8237 19.2941L19.309 24.147" stroke="#fff" stroke-width="1.5" stroke-linecap="round"/>
	<path d="M23.6767 19.2941L23.1914 24.147" stroke="#fff" stroke-width="1.5" stroke-linecap="round"/>
	<path d="M15.9116 14.4412C15.9659 14.4412 15.993 14.4412 16.0176 14.4406C16.8168 14.4203 17.5219 13.9121 17.7938 13.1603C17.8022 13.1372 17.8107 13.1115 17.8279 13.06L17.9221 12.7773C18.0026 12.536 18.0428 12.4153 18.0961 12.3129C18.309 11.9041 18.7028 11.6203 19.1579 11.5476C19.2719 11.5294 19.3991 11.5294 19.6535 11.5294H22.8462C23.1006 11.5294 23.2278 11.5294 23.3419 11.5476C23.7969 11.6203 24.1907 11.9041 24.4036 12.3129C24.4569 12.4153 24.4971 12.536 24.5776 12.7773L24.6718 13.06C24.6889 13.1114 24.6976 13.1372 24.7059 13.1603C24.9779 13.9121 25.6829 14.4203 26.4822 14.4406C26.5067 14.4412 26.5339 14.4412 26.5881 14.4412" stroke="#fff" stroke-width="1.5"/>
</svg>
